<?xml version="1.0" encoding="UTF-8" standalone="no"?>
<!-- Created with Inkscape (http://www.inkscape.org/) -->

<svg
   xmlns:dc="http://purl.org/dc/elements/1.1/"
   xmlns:cc="http://creativecommons.org/ns#"
   xmlns:rdf="http://www.w3.org/1999/02/22-rdf-syntax-ns#"
   xmlns:svg="http://www.w3.org/2000/svg"
   xmlns="http://www.w3.org/2000/svg"
   xmlns:xlink="http://www.w3.org/1999/xlink"
   xmlns:sodipodi="http://sodipodi.sourceforge.net/DTD/sodipodi-0.dtd"
   xmlns:inkscape="http://www.inkscape.org/namespaces/inkscape"
   id="svg15438"
   sodipodi:docname="background.svg"
   width="1168.2"
   height="540.43"
   viewBox="0 0 1168.2 540.43"
   version="1.1"
   inkscape:version="0.92.4 (5da689c313, 2019-01-14)">
  <defs
     id="defs15440">
    <linearGradient
       id="linearGradient9193"
       y2="777.36"
       gradientUnits="userSpaceOnUse"
       x2="74.5"
       gradientTransform="matrix(.86239 0 0 .86239 773.13 681.71)"
       y1="538.36"
       x1="72"
       inkscape:collect="always">
      <stop
         id="stop9179"
         style="stop-color:#99bdd8"
         offset="0" />
      <stop
         id="stop9181"
         style="stop-color:#778a96"
         offset="1" />
    </linearGradient>
    <linearGradient
       id="linearGradient8735"
       y2="951.97"
       xlink:href="#linearGradient8673"
       gradientUnits="userSpaceOnUse"
       x2="-309.96"
       gradientTransform="matrix(.85974 -.12949 .12949 .85974 1389.5 255.68)"
       y1="752.36"
       x1="-365.06"
       inkscape:collect="always" />
    <linearGradient
       id="linearGradient8673"
       inkscape:collect="always">
      <stop
         id="stop8675"
         style="stop-color:#ffffff"
         offset="0" />
      <stop
         id="stop8677"
         style="stop-color:#d4e7f7;stop-opacity:0"
         offset="1" />
    </linearGradient>
    <linearGradient
       id="linearGradient8737"
       y2="951.97"
       xlink:href="#linearGradient8673"
       gradientUnits="userSpaceOnUse"
       x2="-309.96"
       gradientTransform="matrix(.57108 -.086014 .086014 .57108 1323.7 530.57)"
       y1="796.36"
       x1="-436.16"
       inkscape:collect="always" />
    <linearGradient
       id="linearGradient8725"
       y2="951.97"
       xlink:href="#linearGradient8673"
       gradientUnits="userSpaceOnUse"
       x2="-309.96"
       gradientTransform="translate(1846.4 144.73)"
       y1="752.36"
       x1="-365.06"
       inkscape:collect="always" />
    <linearGradient
       id="linearGradient8729"
       y2="951.97"
       xlink:href="#linearGradient8673"
       gradientUnits="userSpaceOnUse"
       x2="-309.96"
       gradientTransform="matrix(.66425 0 0 .66425 1724.4 446.11)"
       y1="796.36"
       x1="-436.16"
       inkscape:collect="always" />
    <linearGradient
       id="linearGradient8578"
       y2="308.36"
       gradientUnits="userSpaceOnUse"
       x2="536"
       gradientTransform="translate(770.38 574.73)"
       y1="1034.4"
       x1="536"
       inkscape:collect="always">
      <stop
         id="stop8582"
         style="stop-color:#555753"
         offset="0" />
      <stop
         id="stop8584"
         style="stop-color:#a4cded"
         offset="1" />
    </linearGradient>
    <linearGradient
       id="linearGradient8745"
       y2="860.36"
       gradientUnits="userSpaceOnUse"
       x2="424"
       gradientTransform="translate(770.38 574.73)"
       y1="774.36"
       x1="424"
       inkscape:collect="always">
      <stop
         id="stop8741"
         style="stop-color:#50653b"
         offset="0" />
      <stop
         id="stop8743"
         style="stop-color:#73d216"
         offset="1" />
    </linearGradient>
    <linearGradient
       id="linearGradient8671"
       y2="439.21"
       xlink:href="#linearGradient8665"
       gradientUnits="userSpaceOnUse"
       x2="69.008"
       gradientTransform="matrix(.99737 -.072477 .072477 .99737 755.62 608.71)"
       y1="330.36"
       x1="62"
       inkscape:collect="always" />
    <linearGradient
       id="linearGradient8665"
       inkscape:collect="always">
      <stop
         id="stop8667"
         style="stop-color:#ffffff"
         offset="0" />
      <stop
         id="stop8669"
         style="stop-color:#ffffff;stop-opacity:0"
         offset="1" />
    </linearGradient>
    <linearGradient
       id="linearGradient8679"
       y2="439.21"
       xlink:href="#linearGradient8673"
       gradientUnits="userSpaceOnUse"
       x2="90.008"
       gradientTransform="matrix(.88792 -.064523 .072477 .99737 749.08 603.17)"
       y1="362.36"
       x1="74"
       inkscape:collect="always" />
    <linearGradient
       id="linearGradient9171"
       y2="439.21"
       xlink:href="#linearGradient8665"
       gradientUnits="userSpaceOnUse"
       x2="69.008"
       gradientTransform="matrix(-.57969 -.042125 -.042125 .57969 720.38 971.12)"
       y1="330.36"
       x1="62"
       inkscape:collect="always" />
    <linearGradient
       id="linearGradient15436"
       y2="1793.8"
       gradientUnits="userSpaceOnUse"
       y1="1161.9"
       gradientTransform="matrix(2.5994104,0,0,1.0694,2635.259,-334.92786)"
       x2="-534.8"
       x1="-553.96"
       inkscape:collect="always">
      <stop
         id="stop7063"
         style="stop-color:#93c3ea"
         offset="0" />
      <stop
         id="stop7065"
         style="stop-color:#93c3ea;stop-opacity:0"
         offset="1" />
    </linearGradient>
  </defs>
  <sodipodi:namedview
     id="namedview15442"
     bordercolor="#666666"
     inkscape:pageshadow="2"
     inkscape:window-y="-8"
     pagecolor="#ffffff"
     inkscape:window-height="1017"
     inkscape:window-maximized="1"
     inkscape:zoom="2.687135"
     inkscape:window-x="-8"
     showgrid="false"
     borderopacity="1.0"
     inkscape:current-layer="layer1"
     inkscape:cx="1073.8937"
     inkscape:cy="166.7697"
     inkscape:window-width="1920"
     inkscape:pageopacity="0.0"
     inkscape:document-units="mm" />
  <g
     id="layer1"
     inkscape:label="Layer 1"
     inkscape:groupmode="layer"
     transform="translate(-660.38 -844.96)">
    <rect
       id="rect7059"
       style="fill:url(#linearGradient15436);stroke-width:1.00385189"
       height="532.34998"
       width="1169.1552"
       y="845.33215"
       x="660.51337" />
    <path
       id="rect9175"
       style="fill:url(#linearGradient9193)"
       d="m799.87 1126.1v17.248h-9.4862v208.7h94v-208.7h-11.211v-17.248h-73.303z" />
    <path
       id="path8731"
       style="fill:url(#linearGradient8735)"
       d="m1172.8 988.51c-17.129 2.3678-30.182 17.95-32.683 34.569-5.8263 5.4557-12.195 10.409-19.628 4.5968-11.558-2.1996-24.074 4.4229-28.891 15.13-14.058-4.5835-30.579 10.941-24.169 25.163 4.2701 10.648 18.746 14.88 28.422 9.0914 9.221 12.304 29.829 13.619 40.074 1.9191 9.4282 4.4571 21.551 9.9534 30.915 2.3391 8.8478-5.6701 20.067-0.7777 28.845-6.2085 7.348-6.3236 15.021-9.0223 24.23-5.9928 10.458-0.2234 20.604-6.9722 24.46-16.763 8.8094 9.6095 26.523 6.2948 31.65-5.5805 6.5351 1.795 13.279 9.0739 21.287 4.4072 14.993-6.2051 15.947-29.864 2.0471-37.809-8.1486-5.5908-20.543-2.7578-24.715 6.4671-4.6674 3.096-8.3527-7.4349-15.056-5.2196-8.6948-1.6267-0.9476-14.122-8.373-18.919-5.8566-8.4833-18.761-10.803-26.604-3.7108-6.1314 4.532-4.9232 24.504-14.912 13.273-6.0861-8.8181-15.058-15.211-25.8-16.681-3.6656-0.5993-7.4265-0.641-11.099-0.073z" />
    <path
       id="path8733"
       style="fill:url(#linearGradient8737)"
       d="m1179.8 1017.4c-11.378 1.5728-20.048 11.923-21.71 22.963-3.8701 3.624-8.1002 6.9141-13.038 3.0535-7.6775-1.4611-15.991 2.9379-19.191 10.05-9.338-3.0446-20.312 7.2675-16.055 16.714 2.8364 7.0728 12.452 9.884 18.879 6.039 6.1251 8.1732 19.814 9.0463 26.62 1.2748 6.2627 2.9606 14.315 6.6116 20.536 1.5537 5.8772-3.7663 13.329-0.5165 19.16-4.124 4.8809-4.2004 9.9779-5.9931 16.095-3.9807 6.9468-0.1484 13.686-4.6313 16.247-11.135 5.8517 6.3831 17.618 4.1813 21.023-3.7069 4.341 1.1923 8.8204 6.0274 14.14 2.9275 9.9591-4.1217 10.593-19.837 1.3597-25.114-5.4126-3.7138-13.646-1.8319-16.417 4.2957-3.1003 2.0566-5.5483-4.9387-10.001-3.4671-5.7755-1.0806-0.6295-9.3805-5.5618-12.567-3.8903-5.635-12.462-7.1758-17.672-2.4649-4.0728 3.0104-3.2702 16.277-9.9057 8.8167-4.0427-5.8575-10.002-10.104-17.138-11.08-2.435-0.3982-4.9331-0.4259-7.3726-0.049z" />
    <path
       id="path8683"
       style="fill:url(#linearGradient8725)"
       d="m1474.4 941.09c-19.887-0.2413-37.402 15.245-43.094 33.719-7.5611 5.207-15.652 9.7494-23.111 1.8659-12.769-4.4818-28.138 0.9064-35.451 12.259-15.204-7.6212-36.653 7.2053-31.8 24.479 3.0326 12.842 18.772 20.135 30.768 15.209 8.3797 15.574 31.593 20.599 45.25 9.0475 9.9597 6.6844 22.806 15.012 34.761 7.9563 11.034-4.9332 22.956 2.553 33.87-2.12 9.4405-5.9334 18.63-7.6883 28.585-2.6651 11.933 1.5373 24.628-4.4003 30.691-14.875 8.3733 12.438 29.088 11.703 36.953-0.9253 7.1253 3.161 13.548 12.595 23.456 8.6591 18.115-4.489 23.253-31.233 8.8049-42.651-8.31-7.7546-22.892-6.6557-29.217 3.1215-5.8389 2.7218-8.2264-9.8869-16.23-8.5156-9.6103-3.3396 1.3413-16.224-6.2821-22.951-5.2079-10.652-19.487-15.5-29.622-8.7778-7.7498 4.1041-9.797 27.027-19.234 12.542-5.4114-11.072-14.52-19.88-26.486-23.392-4.0665-1.3096-8.3368-2.0013-12.611-1.9844z" />
    <path
       id="path8727"
       style="fill:url(#linearGradient8729)"
       d="m1477.3 975.09c-13.21-0.1602-24.844 10.126-28.625 22.398-5.0225 3.4588-10.397 6.4761-15.352 1.2394-8.4818-2.977-18.691 0.6021-23.549 8.1432-10.099-5.0624-24.347 4.7862-21.123 16.26 2.0144 8.5301 12.47 13.375 20.438 10.103 5.5663 10.345 20.986 13.683 30.057 6.0099 6.6157 4.4401 15.149 9.9719 23.09 5.2849 7.3297-3.2769 15.249 1.6959 22.498-1.4082 6.2709-3.9413 12.375-5.107 18.988-1.7703 7.9263 1.0212 16.359-2.9229 20.386-9.8807 5.562 8.2623 19.322 7.7737 24.546-0.6146 4.733 2.0997 8.9994 8.3662 15.581 5.7518 12.033-2.9818 15.446-20.747 5.8488-28.331-5.52-5.151-15.206-4.4211-19.408 2.0735-3.8785 1.8079-5.4644-6.5675-10.781-5.6566-6.3837-2.2183 0.891-10.777-4.1729-15.245-3.4594-7.0755-12.944-10.296-19.677-5.8307-5.1479 2.7262-6.5077 17.953-12.776 8.3308-3.5945-7.3545-9.6451-13.205-17.594-15.538-2.7011-0.8699-5.5377-1.3293-8.3768-1.3182z" />
    <path
       id="rect8518"
       sodipodi:nodetypes="cccccccccccccccccccccccccccccccccccccccccc"
       style="fill:url(#linearGradient8578)"
       d="m 1272.4,941.09 v 40 h -20 v 292 h -24 v -172 h -96 v 92 h -14 v -214 h -88 v 150 h -26 v 64 h -2 v 80 h -44 c 0,0 0,0 0,76 v -2 h 806 v -4 h 2 v -234 h -52 v -154 h -34 v 154 h -16 v 160 h -16 v -162 h -58 v -71.062 l -100,-32.938 v 60 h -84 v 136 h -46 v -218 h -16 v -40 z"
       inkscape:connector-curvature="0" />
    <path
       id="rect7057"
       sodipodi:nodetypes="ccccccccccc"
       style="fill:url(#linearGradient8745)"
       d="m 660.38,1356.3 313,-24 c 38.3381,4.0907 264.5792,-1.5013 345.995,9.8832 l 190.05,-2.3613 234.95,4.3671 22.025,-1.099 62.151,1.21 v 41.137 H 660.61966 L 660.351,1356.3 Z"
       inkscape:connector-curvature="0" />
    <path
       id="path8623"
       style="fill:url(#linearGradient8671)"
       d="m797.11 910.64c-19.727 1.3937-26.351 30.202-12.087 42.283 4.5626 10.359-11.263 21.602-19.497 12.785-14.002-5.0444-31.067 2.0827-37.451 15.497-15.618-8.3351-34.484 6.2977-35.331 22.751-2.7479 16.672 9.6946 36.94 28.022 35.777 11.479 0.8746 17.729-17.442 29.88-6.8881 12.846 4.49 24.865-13.304 34.989-2.3849 10.968 5.6141 25.472 4.2541 34.564-4.3131 12.676 7.6313 29.63-6.9781 40.27 6.4257 19.266 12.768 49.231 7.7894 61.188-12.575 10.312-1.3466 16.098 16.127 28.891 12 10.211 2.9675 19.694-11.382 25.691-8.9134 11.923 11.79 34.598 4.4101 37.811-11.96 5.0019-15.686-8.8337-35.451-25.984-32.533-14.765 8.5627-18.838-18.85-34.726-15.253-3.9998-5.0557 5.996-16.617-0.4297-24.432-4.0522-12.151-19.266-19.254-30.604-12.513-5.4038 5.8209-10.848 19.035-19.128 7.9922-11.994-8.6712-28.669-1.1638-39.417-3.4935-12.336-11.514-31.371-15.892-47.195-9.5074-3.9371-6.6719-11.569-11.422-19.455-10.743z" />
    <path
       id="path8663"
       style="fill:url(#linearGradient8679)"
       d="m824.37 946.19c-11.916 0.8389-15.764 20.338-7.0783 28.606 2.8135 7.0491-6.691 14.588-11.716 8.5643-8.49-3.496-18.766 1.245-22.553 10.306-9.4843-5.736-20.809 4.0848-21.232 15.237-1.5712 11.29 6.0583 25.101 17.13 24.411 6.943 0.6548 10.622-11.732 18.023-4.5099 7.7884 3.1137 14.957-8.8873 21.135-1.4288 6.6596 3.8659 15.418 3.0217 20.868-2.7386 7.7026 5.2429 17.871-4.5723 24.374 4.5739 11.714 8.7615 29.798 5.5469 36.915-8.1976 6.2252-0.8576 9.8166 11.022 17.527 8.2924 6.1879 2.0672 11.842-7.6121 15.48-5.9058 7.2698 8.0592 20.935 3.1767 22.789-7.9062 2.9388-10.609-5.53-24.086-15.88-22.2-8.878 5.7268-11.487-12.884-21.071-10.53-2.4447-3.4497 3.5346-11.236-0.39123-16.569-2.5146-8.2615-11.748-13.16-18.565-8.6498-3.2348 3.918-6.454 12.849-11.518 5.3165-7.2959-5.9445-17.334-0.9435-23.843-2.5811-7.5181-7.8742-19.047-10.945-28.577-6.7008-2.4156-4.5454-7.0542-7.8077-11.817-7.3896z" />
    <path
       id="path9164"
       style="fill:url(#linearGradient9171)"
       d="m695.41 1146.6c-4.2721-0.01-8.3164 2.655-10.462 6.2904-7.3134-2.9507-15.797-1.9372-22.574 1.963v60.205c6.0824-3.1057 14.191 2.5128 20.477-1.2715 5.2845 4.9794 13.701 5.7614 20.076 2.4983 5.8847-6.3461 12.877 3.9927 20.344 1.383 7.0621-6.1344 10.682 4.5235 17.354 4.0152 10.652 0.676 17.903-11.1 16.306-20.79-0.4923-9.5627-11.467-18.072-20.544-13.228-3.7107-7.7963-13.633-11.944-21.771-9.0118-4.786 5.125-13.984-1.4071-11.332-7.4281 8.2899-7.0216 4.4389-23.772-7.0265-24.582-0.28644-0.025-0.56284-0.044-0.84764-0.045z" />
  </g>
  <metadata
     id="metadata708">
    <rdf:RDF>
      <cc:Work>
        <dc:format>image/svg+xml</dc:format>
        <dc:type
           rdf:resource="http://purl.org/dc/dcmitype/StillImage" />
        <cc:license
           rdf:resource="http://creativecommons.org/licenses/publicdomain/" />
        <dc:publisher>
          <cc:Agent
             rdf:about="http://openclipart.org/">
            <dc:title>Openclipart</dc:title>
          </cc:Agent>
        </dc:publisher>
        <dc:title>city skyline</dc:title>
        <dc:date>2010-11-17T22:19:21</dc:date>
        <dc:description />
        <dc:source>https://openclipart.org/detail/96361/city-skyline-by-rg1024</dc:source>
        <dc:creator>
          <cc:Agent>
            <dc:title>rg1024</dc:title>
          </cc:Agent>
        </dc:creator>
        <dc:subject>
          <rdf:Bag>
            <rdf:li>building</rdf:li>
            <rdf:li>city</rdf:li>
            <rdf:li>city skyline</rdf:li>
            <rdf:li>skyline</rdf:li>
            <rdf:li>skyscraper</rdf:li>
            <rdf:li>tree</rdf:li>
            <rdf:li>trees</rdf:li>
          </rdf:Bag>
        </dc:subject>
      </cc:Work>
      <cc:License
         rdf:about="http://creativecommons.org/licenses/publicdomain/">
        <cc:permits
           rdf:resource="http://creativecommons.org/ns#Reproduction" />
        <cc:permits
           rdf:resource="http://creativecommons.org/ns#Distribution" />
        <cc:permits
           rdf:resource="http://creativecommons.org/ns#DerivativeWorks" />
      </cc:License>
    </rdf:RDF>
  </metadata>
</svg>
